# xmcd
#
# Track frame offsets:
#	183
#	23815
#	42738
#	74190
#	96573
#	114895
#	134993
#
# Disc length: 2026 seconds
# Revision: 0
# Processed by: cddbd v1.5.2PL0 Copyright (c) Steve Scherf et al.
# Submitted via: dBpowerAMP V12.0
#
DISCID=7107e807
DTITLE=Johnny "Guitar" Watson - Funk Beyond The Call of Duty
DYEAR=1977
DGENRE=Soul
TTITLE0=Funk Beyond The Call of Duty
TTITLE1=It's About The Dollar Bill
TTITLE2=Give me my Love
TTITLE3=It's a Damn Shame
TTITLE4=I'm Gonna Get You Baby
TTITLE5=Barn Door
TTITLE6=Love That Will Not Die
EXTD=
EXTT0=
EXTT1=
EXTT2=
EXTT3=
EXTT4=
EXTT5=
EXTT6=
PLAYORDER=
